<svg width="27" height="16" viewBox="0 0 27 16" fill="none" xmlns="http://www.w3.org/2000/svg">
<path d="M13.3596 5.29296e-05C15.7033 0.018217 18.0682 0.820365 20.2561 2.17974C22.4944 3.569 24.3699 5.35611 25.9326 7.4731C26.2326 7.87974 26.235 8.03033 25.9297 8.43697C23.8977 11.1469 21.4385 13.3524 18.3213 14.7458C14.4916 16.4579 10.7041 16.2622 7.00393 14.3461C4.26467 12.9276 2.05217 10.8891 0.219362 8.42173C-0.0736071 8.03033 -0.073607 7.87564 0.222291 7.48423C2.31995 4.68638 4.87229 2.44517 8.11018 1.03892C9.62483 0.383842 11.4729 -0.00522051 13.3596 5.29296e-05ZM13.3532 1.13443C11.4934 1.13443 9.96174 1.47896 8.49573 2.11294C5.61878 3.3563 3.34241 5.35376 1.40589 7.77896C1.2887 7.92661 1.32151 8.01744 1.42229 8.144C3.22464 10.4104 5.33928 12.3042 7.97249 13.5592C11.2045 15.1002 14.4764 15.1934 17.7676 13.7479C20.6 12.504 22.8418 10.5211 24.752 8.12701C24.8692 7.97935 24.8346 7.88853 24.735 7.76255C23.2901 5.93501 21.6207 4.35357 19.6309 3.13013C17.6293 1.89966 15.4742 1.14966 13.3532 1.13501V1.13443Z" fill="white"/>
<path d="M13.0893 2.84083C15.753 2.8461 17.9526 4.89161 18.1817 7.56641C18.4026 10.1697 16.5135 12.5779 13.9196 13.001C10.4737 13.5635 7.51175 10.6238 8.02737 7.15274C8.08597 6.74552 8.34261 6.51876 8.68538 6.5668C9.05276 6.61895 9.21565 6.90255 9.14944 7.39239C8.97366 8.68907 9.34925 9.8088 10.2539 10.7422C10.8434 11.3463 11.611 11.7456 12.4441 11.8815C13.2772 12.0175 14.1319 11.8829 14.8828 11.4975C16.4449 10.7 17.2852 9.00958 16.9922 7.25059C16.7203 5.60118 15.3346 4.26817 13.6483 4.02032C13.0372 3.9336 12.4144 3.9873 11.8272 4.17735C11.7551 4.19962 11.6848 4.2295 11.611 4.24591C11.2981 4.31739 11.0162 4.17384 10.9207 3.89786C10.8182 3.60196 10.9518 3.31192 11.2547 3.17716C11.6825 2.98848 12.4793 2.83966 13.0893 2.84083Z" fill="white"/>
<path d="M10.8096 7.94032C10.8123 7.49131 10.9479 7.05316 11.1995 6.68121C11.451 6.30926 11.8071 6.0202 12.2229 5.85054C12.6386 5.68088 13.0953 5.63822 13.5352 5.72796C13.9752 5.8177 14.3787 6.03581 14.6948 6.35475C15.0108 6.67368 15.2253 7.07912 15.3111 7.51988C15.3968 7.96063 15.3501 8.41691 15.1767 8.83109C15.0033 9.24528 14.711 9.59879 14.3368 9.84696C13.9626 10.0951 13.5232 10.2269 13.0742 10.2255C12.4711 10.2222 11.8938 9.97976 11.4692 9.55133C11.0446 9.1229 10.8074 8.5435 10.8096 7.94032ZM14.2168 7.94735C14.2154 7.72277 14.1475 7.50364 14.0215 7.31768C13.8956 7.13172 13.7173 6.98728 13.5093 6.90262C13.3013 6.81797 13.0729 6.79689 12.8529 6.84207C12.6329 6.88725 12.4312 6.99665 12.2734 7.15644C12.1156 7.31623 12.0087 7.51923 11.9662 7.73977C11.9238 7.9603 11.9477 8.18848 12.0349 8.39544C12.1221 8.60239 12.2687 8.77884 12.4563 8.90246C12.6438 9.02607 12.8637 9.09132 13.0883 9.08993C13.389 9.08684 13.6762 8.96498 13.8874 8.75094C14.0986 8.5369 14.2166 8.24804 14.2156 7.94735H14.2168Z" fill="white"/>
</svg>
