<svg width="13" height="16" viewBox="0 0 13 16" fill="none" xmlns="http://www.w3.org/2000/svg">
<path d="M6.82303 0C7.1253 0.0496385 7.43079 0.0855559 7.72943 0.151741C9.94904 0.644897 11.7187 2.51582 12.0916 4.76408C12.3563 6.35951 12.0188 7.81638 11.079 9.13469C10.7784 9.55803 10.4797 9.98218 10.1795 10.4063C10.0988 10.5181 9.99464 10.5782 9.8542 10.5464C9.72224 10.5165 9.62861 10.4293 9.62538 10.2986C9.6273 10.1998 9.65832 10.1038 9.71457 10.0225C10.0019 9.60202 10.2973 9.18716 10.5939 8.77148C12.7429 5.7738 11.1888 1.59973 7.60231 0.737717C4.76969 0.0605347 1.86684 1.96092 1.37127 4.8226C1.12025 6.2718 1.42736 7.59186 2.27848 8.79166C3.62612 10.6916 4.96999 12.5942 6.31009 14.4993C6.3448 14.5485 6.38032 14.5969 6.42874 14.6635C6.46708 14.6115 6.49937 14.5699 6.52963 14.5271L8.03009 12.4016L8.0652 12.3523C8.19716 12.1699 8.36263 12.1247 8.51679 12.2312C8.67095 12.3378 8.68709 12.5194 8.55513 12.7091C8.39612 12.9363 8.2355 13.1623 8.07569 13.3887L7.10714 14.7608C7.08211 14.7963 7.05992 14.8338 7.02158 14.8936H10.8506C10.9011 14.8916 10.9516 14.8927 11.0019 14.8968C11.0753 14.905 11.1431 14.9398 11.1925 14.9947C11.2418 15.0496 11.2693 15.1208 11.2696 15.1946C11.27 15.2684 11.2432 15.3398 11.1944 15.3951C11.1455 15.4505 11.0781 15.486 11.0048 15.4949C10.9495 15.4999 10.8939 15.5012 10.8385 15.4989H2.01616C1.73084 15.4989 1.58435 15.3936 1.58798 15.191C1.59161 14.9884 1.73246 14.8936 2.01132 14.8936H5.82904C5.80322 14.848 5.78869 14.8129 5.76649 14.7834C4.43796 12.9008 3.11668 11.0133 1.77846 9.13752C0.0661376 6.73752 0.375268 3.52796 2.5408 1.52346C3.492 0.642475 4.62481 0.146091 5.91944 0.0274424C5.95884 0.0215651 5.9978 0.0130715 6.03607 0.00201795L6.82303 0Z" fill="white"/>
</svg>
