<svg width="13" height="12" viewBox="0 0 13 12" fill="none" xmlns="http://www.w3.org/2000/svg">
<path d="M11.2374 0.509033H1.56524C0.701844 0.509033 0 1.29645 0 2.26511V9.68166C0 10.6503 0.701844 11.4377 1.56524 11.4377H11.2348C12.0982 11.4377 12.8 10.6503 12.8 9.68166V2.26809C12.8027 1.29942 12.1008 0.509033 11.2374 0.509033ZM12.0876 9.68166C12.0876 10.2076 11.7062 10.6355 11.2374 10.6355H1.56524C1.09647 10.6355 0.715086 10.2076 0.715086 9.68166V2.26809C0.715086 1.74215 1.09647 1.31428 1.56524 1.31428H11.2348C11.7036 1.31428 12.085 1.74215 12.085 2.26809V9.68166H12.0876Z" fill="white"/>
<path d="M8.07252 5.876L11.203 2.72634C11.3487 2.57777 11.3619 2.32521 11.2295 2.15881C11.0971 1.99538 10.8719 1.98053 10.7236 2.12909L6.40663 6.47621L5.56441 5.63234C5.56177 5.62937 5.55912 5.6264 5.55912 5.62343C5.54058 5.60263 5.52204 5.5848 5.50085 5.56697L2.07373 2.12612C1.92542 1.97755 1.7003 1.99241 1.56787 2.15881C1.43545 2.32521 1.44869 2.57777 1.597 2.72634L4.76458 5.90274L1.61025 9.21582C1.46723 9.36736 1.45928 9.61993 1.59436 9.78335C1.66587 9.86655 1.76121 9.91112 1.85655 9.91112C1.94395 9.91112 2.03135 9.87547 2.10021 9.80415L5.30222 6.44353L6.17091 7.31414C6.23977 7.38248 6.32452 7.41517 6.40928 7.41517C6.49403 7.41517 6.58143 7.37951 6.64764 7.31117L7.54017 6.41382L10.7236 9.80712C10.7925 9.88141 10.8825 9.91706 10.9699 9.91706C11.0653 9.91706 11.158 9.87547 11.2295 9.79227C11.3646 9.63181 11.3593 9.37628 11.2162 9.22473L8.07252 5.876Z" fill="white"/>
</svg>
