<svg width="16" height="16" viewBox="0 0 16 16" fill="none" xmlns="http://www.w3.org/2000/svg">
<g clip-path="url(#clip0_64_7)">
<path d="M0.178833 5.26897C0.212337 5.09661 0.238978 4.92263 0.280959 4.75229C0.429923 4.13617 0.740193 3.5708 1.17991 3.11424C1.39627 2.88859 1.61788 2.66739 1.84231 2.44982C2.21489 2.08653 2.73036 2.08653 3.09971 2.45587C3.89411 3.24543 4.68609 4.03741 5.47564 4.83181C5.85508 5.21326 5.85225 5.72632 5.47322 6.11141C5.16159 6.42787 4.84513 6.7395 4.53189 7.05395C4.24166 7.34539 4.21259 7.60615 4.43864 7.94523C4.58113 8.15917 5.22134 9.01977 5.36908 9.23007C5.49461 9.40849 5.47766 9.58973 5.32548 9.69589C5.1838 9.79439 5.00255 9.75362 4.88146 9.58529C4.71071 9.34794 4.05113 8.45787 3.89168 8.21285C3.56876 7.71595 3.6289 7.11369 4.04548 6.68743C4.36275 6.3645 4.6873 6.0448 5.0078 5.72309C5.20075 5.52973 5.20277 5.41348 5.01345 5.22336C4.24677 4.45614 3.47982 3.68918 2.7126 2.9225C2.52934 2.73924 2.40784 2.73884 2.22579 2.92573C1.9513 3.20829 1.64775 3.46825 1.41524 3.78149C0.683406 4.76641 0.566749 5.83409 1.11451 6.94052C2.20237 9.13562 3.68622 11.0211 5.58705 12.5724C6.56694 13.3755 7.63958 14.0582 8.78201 14.606C9.31666 14.86 9.91503 14.9484 10.5003 14.8598C11.0855 14.7713 11.631 14.5099 12.0666 14.1091C12.3116 13.8843 12.5429 13.6437 12.7766 13.4063C12.9143 13.2663 12.9139 13.1238 12.7734 12.9825C11.9863 12.1924 11.1976 11.4039 10.4075 10.617C10.2614 10.4717 10.125 10.4786 9.97401 10.6287C9.65512 10.9452 9.33946 11.2645 9.02057 11.581C8.54547 12.052 7.95612 12.1142 7.40109 11.738C7.06323 11.5087 6.73707 11.2625 6.41011 11.0179C6.23815 10.8895 6.20828 10.6998 6.32373 10.5585C6.43917 10.4172 6.60629 10.4136 6.78027 10.5403C7.10319 10.7761 7.42087 11.0138 7.74905 11.2415C8.04452 11.4474 8.32386 11.4187 8.5822 11.1648C8.9023 10.85 9.21715 10.5299 9.53564 10.213C9.94535 9.80488 10.4499 9.80206 10.8576 10.2085C11.6367 10.9852 12.4145 11.763 13.1912 12.5421C13.5851 12.9373 13.5884 13.4499 13.198 13.8443C12.9425 14.1022 12.6914 14.3666 12.419 14.606C11.8833 15.0782 11.2186 15.3794 10.5104 15.4707C9.80218 15.5619 9.08284 15.4392 8.44495 15.1182C4.91052 13.3591 2.30934 10.6744 0.542529 7.1585C0.363411 6.80179 0.249146 6.41608 0.205071 6.01937C0.199033 5.99061 0.190247 5.96249 0.178833 5.93541V5.26897Z" fill="white"/>
<path d="M9.4428 0.00121093C9.70558 0.0415768 9.97038 0.0702366 10.2315 0.118272C12.9264 0.612754 15.0831 2.77112 15.5598 5.4611C15.6264 5.8365 15.6474 6.22078 15.6757 6.60224C15.6926 6.83394 15.5691 6.97562 15.381 6.97845C15.1929 6.98128 15.0779 6.84444 15.073 6.61112C15.0193 4.06605 13.5012 1.90406 11.124 0.990174C10.4627 0.740305 9.76221 0.61018 9.05528 0.605892C8.86799 0.603066 8.75375 0.529196 8.715 0.389127C8.66495 0.20748 8.76344 0.0952634 8.89786 0L9.4428 0.00121093Z" fill="white"/>
<path d="M9.17719 1.82415C11.4869 1.87864 13.5 3.68098 13.8067 6.00403C13.833 6.20384 13.8471 6.40527 13.8568 6.60629C13.8665 6.83597 13.7446 6.97887 13.5557 6.97887C13.3668 6.97887 13.2634 6.84566 13.2529 6.62163C13.1742 4.92061 12.3855 3.66483 10.8798 2.8676C10.3369 2.5806 9.74756 2.45184 9.13521 2.42721C9.08475 2.42721 9.03389 2.42721 8.98384 2.42237C8.90909 2.41741 8.83888 2.38474 8.78695 2.33074C8.73503 2.27673 8.70513 2.2053 8.70311 2.13041C8.70109 2.05552 8.7271 1.98258 8.77603 1.92586C8.82497 1.86913 8.89332 1.83272 8.96769 1.82374C9.03747 1.81981 9.10742 1.81995 9.17719 1.82415Z" fill="white"/>
<path d="M9.05488 3.64301C10.7079 3.70719 11.9749 4.97266 12.0311 6.58527C12.0347 6.69022 11.9963 6.82747 11.9253 6.89488C11.8615 6.95543 11.7202 6.96996 11.6234 6.95099C11.5023 6.92798 11.4522 6.81657 11.4324 6.68901C11.3884 6.40161 11.3751 6.09886 11.271 5.83366C10.8818 4.84954 10.1379 4.326 9.08152 4.2493C9.04116 4.24647 9.00079 4.2493 8.96043 4.24203C8.89224 4.23373 8.82914 4.20173 8.78214 4.15164C8.73514 4.10154 8.70724 4.03653 8.7033 3.96795C8.69662 3.89955 8.71465 3.83102 8.75411 3.77475C8.79357 3.71848 8.85186 3.6782 8.91845 3.66117C8.96324 3.65075 9.00893 3.64467 9.05488 3.64301Z" fill="white"/>
<path d="M9.05812 5.47078C9.36049 5.48376 9.64689 5.61013 9.8603 5.82473C10.0737 6.03933 10.1985 6.32643 10.2098 6.62887C10.2174 6.82828 10.1101 6.96391 9.93406 6.97723C9.75806 6.99055 9.63939 6.87955 9.61113 6.68942C9.55099 6.28052 9.3976 6.1243 8.99798 6.069C8.79816 6.04074 8.68554 5.9148 8.7025 5.73881C8.71945 5.56281 8.85589 5.46069 9.05812 5.47078Z" fill="white"/>
</g>
<defs>
<clipPath id="clip0_64_7">
<rect width="15.4984" height="15.5" fill="white" transform="translate(0.178833)"/>
</clipPath>
</defs>
</svg>
