<svg width="16" height="16" viewBox="0 0 16 16" fill="none" xmlns="http://www.w3.org/2000/svg">
<g clip-path="url(#clip0_87_2569)">
<path d="M0 5.26885C0.0335037 5.09649 0.0601451 4.92251 0.102126 4.75216C0.25109 4.13604 0.56136 3.57068 1.00107 3.11412C1.21743 2.88847 1.43904 2.66727 1.66348 2.4497C2.03605 2.0864 2.55153 2.0864 2.92087 2.45575C3.71527 3.24531 4.50725 4.03729 5.29681 4.83169C5.67625 5.21314 5.67342 5.72619 5.29439 6.11128C4.98276 6.42775 4.66629 6.73938 4.35305 7.05383C4.06282 7.34527 4.03376 7.60603 4.25981 7.9451C4.4023 8.15904 5.0425 9.01964 5.19024 9.22995C5.31578 9.40837 5.29883 9.58961 5.14665 9.69577C5.00496 9.79427 4.82372 9.75349 4.70262 9.58517C4.53188 9.34782 3.8723 8.45775 3.71285 8.21273C3.38992 7.71583 3.45007 7.11357 3.86665 6.6873C4.18392 6.36438 4.50846 6.04468 4.82897 5.72296C5.02192 5.52961 5.02394 5.41336 4.83462 5.22323C4.06794 4.45601 3.30099 3.68906 2.53376 2.92238C2.3505 2.73912 2.229 2.73872 2.04695 2.92561C1.77246 3.20817 1.46891 3.46813 1.23641 3.78137C0.504573 4.76629 0.387916 5.83397 0.935681 6.9404C2.02354 9.13549 3.50739 11.021 5.40822 12.5722C6.38811 13.3754 7.46075 14.0581 8.60318 14.6059C9.13783 14.8599 9.73619 14.9483 10.3215 14.8597C10.9067 14.7712 11.4521 14.5097 11.8877 14.109C12.1328 13.8841 12.3641 13.6436 12.5978 13.4062C12.7354 13.2661 12.735 13.1236 12.5946 12.9824C11.8074 12.1923 11.0188 11.4038 10.2287 10.6169C10.0826 10.4716 9.94615 10.4785 9.79518 10.6286C9.47629 10.9451 9.16063 11.2644 8.84174 11.5809C8.36663 12.0519 7.77729 12.1141 7.22226 11.7379C6.8844 11.5086 6.55824 11.2624 6.23128 11.0178C6.05932 10.8894 6.02945 10.6997 6.14489 10.5584C6.26034 10.4171 6.42746 10.4135 6.60143 10.5402C6.92436 10.776 7.24204 11.0137 7.57021 11.2414C7.86569 11.4472 8.14502 11.4186 8.40336 11.1647C8.72347 10.8498 9.03832 10.5297 9.35681 10.2129C9.76652 9.80476 10.2711 9.80193 10.6788 10.2084C11.4578 10.9851 12.2357 11.7629 13.0123 12.542C13.4063 12.9372 13.4095 13.4498 13.0192 13.8442C12.7637 14.1021 12.5126 14.3665 12.2401 14.6059C11.7045 15.0781 11.0398 15.3792 10.3316 15.4705C9.62334 15.5618 8.904 15.4391 8.26612 15.1181C4.73169 13.359 2.13051 10.6742 0.363696 7.15837C0.184578 6.80167 0.0703128 6.41596 0.0262379 6.01925C0.0202003 5.99049 0.011414 5.96237 0 5.93529V5.26885Z" fill="white"/>
<path d="M9.26396 0.00121093C9.52674 0.0415768 9.79154 0.0702366 10.0527 0.118272C12.7475 0.612754 14.9043 2.77112 15.381 5.4611C15.4476 5.8365 15.4686 6.22078 15.4969 6.60224C15.5138 6.83394 15.3903 6.97562 15.2022 6.97845C15.0141 6.98128 14.899 6.84444 14.8942 6.61112C14.8405 4.06605 13.3223 1.90406 10.9452 0.990174C10.2839 0.740305 9.58338 0.61018 8.87645 0.605892C8.68915 0.603066 8.57492 0.529196 8.53617 0.389127C8.48611 0.20748 8.58461 0.0952634 8.71902 0L9.26396 0.00121093Z" fill="white"/>
<path d="M8.99836 1.82406C11.3081 1.87855 13.3211 3.68088 13.6279 6.00394C13.6542 6.20375 13.6683 6.40518 13.678 6.6062C13.6877 6.83588 13.5658 6.97877 13.3768 6.97877C13.1879 6.97877 13.0846 6.84557 13.0741 6.62154C12.9954 4.92052 12.2066 3.66474 10.701 2.86751C10.1581 2.58051 9.56873 2.45174 8.95638 2.42712C8.90592 2.42712 8.85506 2.42712 8.805 2.42228C8.73025 2.41732 8.66005 2.38464 8.60812 2.33064C8.5562 2.27664 8.5263 2.20521 8.52428 2.13032C8.52226 2.05543 8.54826 1.98249 8.5972 1.92576C8.64614 1.86904 8.71448 1.83263 8.78886 1.82365C8.85864 1.81972 8.92859 1.81986 8.99836 1.82406Z" fill="white"/>
<path d="M8.87605 3.64307C10.529 3.70725 11.7961 4.97272 11.8522 6.58533C11.8559 6.69028 11.8175 6.82753 11.7465 6.89494C11.6827 6.95549 11.5414 6.97002 11.4445 6.95105C11.3234 6.92804 11.2734 6.81663 11.2536 6.68907C11.2096 6.40167 11.1963 6.09892 11.0921 5.83372C10.703 4.8496 9.95906 4.32606 8.90269 4.24936C8.86232 4.24654 8.82196 4.24936 8.78159 4.2421C8.71341 4.23379 8.65031 4.20179 8.60331 4.1517C8.55631 4.1016 8.5284 4.03659 8.52446 3.96801C8.51779 3.89961 8.53581 3.83108 8.57528 3.77481C8.61474 3.71855 8.67303 3.67826 8.73961 3.66123C8.7844 3.65081 8.83009 3.64473 8.87605 3.64307Z" fill="white"/>
<path d="M8.87927 5.4709C9.18164 5.48388 9.46804 5.61025 9.68145 5.82485C9.89486 6.03946 10.0196 6.32656 10.0309 6.629C10.0386 6.8284 9.93121 6.96403 9.75521 6.97735C9.57922 6.99067 9.46054 6.87967 9.43228 6.68954C9.37214 6.28064 9.21875 6.12442 8.81913 6.06912C8.61932 6.04087 8.50669 5.91492 8.52365 5.73893C8.5406 5.56293 8.67704 5.46081 8.87927 5.4709Z" fill="white"/>
</g>
<defs>
<clipPath id="clip0_87_2569">
<rect width="15.4984" height="15.5" fill="white"/>
</clipPath>
</defs>
</svg>
