<svg width="12" height="16" viewBox="0 0 12 16" fill="none" xmlns="http://www.w3.org/2000/svg">
<g clip-path="url(#clip0_87_2565)">
<path d="M6.14529 0C6.44756 0.0496385 6.75306 0.0855559 7.0517 0.151741C9.27131 0.644897 11.0409 2.51582 11.4138 4.76408C11.6786 6.35951 11.3411 7.81638 10.4013 9.13469C10.1006 9.55803 9.80199 9.98218 9.50174 10.4063C9.42103 10.5181 9.31691 10.5782 9.17647 10.5464C9.0445 10.5165 8.95087 10.4293 8.94765 10.2986C8.94956 10.1998 8.98059 10.1038 9.03683 10.0225C9.32417 9.60202 9.61958 9.18716 9.9162 8.77148C12.0652 5.7738 10.5111 1.59973 6.92457 0.737717C4.09195 0.0605347 1.18911 1.96092 0.693532 4.8226C0.442515 6.2718 0.749628 7.59186 1.60075 8.79166C2.94838 10.6916 4.29226 12.5942 5.63236 14.4993C5.66707 14.5485 5.70258 14.5969 5.75101 14.6635C5.78935 14.6115 5.82163 14.5699 5.8519 14.5271L7.35235 12.4016L7.38746 12.3523C7.51943 12.1699 7.68489 12.1247 7.83905 12.2312C7.99322 12.3378 8.00936 12.5194 7.87739 12.7091C7.71839 12.9363 7.55777 13.1623 7.39796 13.3887L6.4294 14.7608C6.40438 14.7963 6.38218 14.8338 6.34385 14.8936H10.1729C10.2233 14.8916 10.2739 14.8927 10.3242 14.8968C10.3976 14.905 10.4654 14.9398 10.5147 14.9947C10.5641 15.0496 10.5916 15.1208 10.5919 15.1946C10.5923 15.2684 10.5655 15.3398 10.5166 15.3951C10.4678 15.4505 10.4003 15.486 10.327 15.4949C10.2718 15.4999 10.2162 15.5012 10.1608 15.4989H1.33843C1.05311 15.4989 0.906614 15.3936 0.910246 15.191C0.913879 14.9884 1.05472 14.8936 1.33359 14.8936H5.15131C5.12548 14.848 5.11095 14.8129 5.08876 14.7834C3.76022 12.9008 2.43895 11.0133 1.10073 9.13752C-0.611597 6.73752 -0.302466 3.52796 1.86306 1.52346C2.81427 0.642475 3.94707 0.146091 5.24171 0.0274424C5.28111 0.0215651 5.32007 0.0130715 5.35834 0.00201795L6.14529 0Z" fill="white"/>
<path d="M8.47589 5.75917C8.47421 6.29795 8.31279 6.82413 8.01206 7.27117C7.71132 7.71822 7.28477 8.06604 6.78635 8.27065C6.28793 8.47527 5.74003 8.52748 5.21194 8.4207C4.68384 8.31391 4.19927 8.05292 3.81951 7.67073C3.43974 7.28854 3.18184 6.80232 3.07843 6.27355C2.97501 5.74479 3.03071 5.19723 3.2385 4.70012C3.44628 4.20302 3.79682 3.77869 4.24577 3.48081C4.69472 3.18293 5.22192 3.02487 5.7607 3.02663C6.48267 3.03036 7.17374 3.32 7.68263 3.83214C8.19152 4.34428 8.47675 5.03719 8.47589 5.75917ZM5.75021 7.86941C6.1694 7.86973 6.57928 7.74569 6.92795 7.51298C7.27663 7.28028 7.54844 6.94937 7.70899 6.56214C7.86954 6.17491 7.91161 5.74875 7.82988 5.3376C7.74814 4.92644 7.54628 4.54878 7.24984 4.25239C6.95339 3.956 6.57569 3.75421 6.16452 3.67256C5.75335 3.5909 5.3272 3.63305 4.94 3.79368C4.5528 3.9543 4.22194 4.22617 3.98931 4.57489C3.75667 4.92362 3.63271 5.33351 3.63311 5.75271C3.63492 6.3136 3.85856 6.85101 4.25521 7.24758C4.65187 7.64416 5.18931 7.8677 5.75021 7.86941Z" fill="white"/>
<path d="M8.47589 11.6832C8.41596 11.6831 8.35742 11.6652 8.30775 11.6317C8.25807 11.5981 8.21952 11.5506 8.19701 11.495C8.17449 11.4395 8.16905 11.3785 8.18136 11.3198C8.19367 11.2612 8.22318 11.2075 8.26613 11.1658C8.30908 11.124 8.36351 11.0959 8.42247 11.0852C8.48143 11.0745 8.54225 11.0816 8.59716 11.1056C8.65207 11.1296 8.69858 11.1694 8.73075 11.22C8.76291 11.2705 8.77928 11.3295 8.77776 11.3895C8.77485 11.4678 8.74187 11.5421 8.68566 11.5968C8.62945 11.6515 8.55432 11.6825 8.47589 11.6832Z" fill="white"/>
</g>
<defs>
<clipPath id="clip0_87_2565">
<rect width="11.5011" height="15.5" fill="white"/>
</clipPath>
</defs>
</svg>
